<svg width="310" height="310" viewBox="0 0 310 310" fill="none" xmlns="http://www.w3.org/2000/svg">
<g clip-path="url(#clip0_1_2)">
<path d="M280.818 233.627C290.632 252.641 299.989 273.133 309.187 295.386C312.649 303.763 304.47 312.226 295.741 309.469C290.679 307.87 285.707 306.344 280.818 304.887V233.627Z" fill="url(#paint0_linear_1_2)"/>
<path d="M0.73024 14.0424C-2.09718 5.16717 7.06313 -2.92255 15.5953 1.02917C136.731 57.134 205.69 110.061 258.189 193.774V269.203H257.085L197.968 184.692H177.609V283.72C169.288 283.014 161.096 282.615 152.972 282.522V184.692H130.221V283.063C104.632 284.589 79.1441 289.198 51.7866 296.872V256.006H103.974V237.178H51.7866V203.52H109.492V184.692H29.0357V303.803C24.4286 305.312 19.7583 306.899 15.0174 308.567C6.3332 311.623 -2.28672 303.361 0.551058 294.702C36.3415 185.502 33.6648 117.424 0.73024 14.0424Z" fill="url(#paint1_linear_1_2)"/>
<path d="M201.402 224.222L252.398 296.997C234.084 292.315 216.883 288.766 200.36 286.354V224.222H201.402Z" fill="url(#paint2_linear_1_2)"/>
</g>
<defs>
<linearGradient id="paint0_linear_1_2" x1="-6.96094" y1="-9.19295" x2="152.039" y2="318.289" gradientUnits="userSpaceOnUse">
<stop stop-color="#9ABFC7"/>
<stop offset="1" stop-color="#7D8C8C"/>
</linearGradient>
<linearGradient id="paint1_linear_1_2" x1="-6.96094" y1="-9.19295" x2="152.039" y2="318.289" gradientUnits="userSpaceOnUse">
<stop stop-color="#9ABFC7"/>
<stop offset="1" stop-color="#7D8C8C"/>
</linearGradient>
<linearGradient id="paint2_linear_1_2" x1="-6.96094" y1="-9.19295" x2="152.039" y2="318.289" gradientUnits="userSpaceOnUse">
<stop stop-color="#9ABFC7"/>
<stop offset="1" stop-color="#7D8C8C"/>
</linearGradient>
<clipPath id="clip0_1_2">
<rect width="310" height="310" fill="white"/>
</clipPath>
</defs>
</svg>
